<svg width="140" height="60" viewBox="0 0 140 60" fill="none" xmlns="http://www.w3.org/2000/svg">
<rect width="60" height="60" rx="20" fill="#E9F4FF"/>
<path d="M43.891 27.2256H42.7499V27.1668H29.9999V32.8335H38.0062C36.8382 36.1322 33.6995 38.5002 29.9999 38.5002C25.3058 38.5002 21.4999 34.6943 21.4999 30.0002C21.4999 25.306 25.3058 21.5002 29.9999 21.5002C32.1667 21.5002 34.138 22.3176 35.639 23.6528L39.646 19.6457C37.1158 17.2877 33.7314 15.8335 29.9999 15.8335C22.1764 15.8335 15.8333 22.1766 15.8333 30.0002C15.8333 37.8237 22.1764 44.1668 29.9999 44.1668C37.8235 44.1668 44.1666 37.8237 44.1666 30.0002C44.1666 29.0503 44.0688 28.1231 43.891 27.2256Z" fill="#FFC107"/>
<path d="M17.4668 23.4063L22.1213 26.8197C23.3807 23.7017 26.4308 21.5002 30 21.5002C32.1668 21.5002 34.1381 22.3176 35.6391 23.6528L39.6461 19.6457C37.116 17.2877 33.7315 15.8335 30 15.8335C24.5586 15.8335 19.8397 18.9055 17.4668 23.4063Z" fill="#FF3D00"/>
<path d="M30.0001 44.1667C33.6593 44.1667 36.9842 42.7663 39.4981 40.489L35.1135 36.7787C33.6912 37.8561 31.9232 38.5 30.0001 38.5C26.3153 38.5 23.1866 36.1505 22.0079 32.8716L17.3882 36.431C19.7328 41.0188 24.4942 44.1667 30.0001 44.1667Z" fill="#4CAF50"/>
<path d="M43.8911 27.2253H42.75V27.1665H30V32.8332H38.0063C37.4453 34.4177 36.426 35.7841 35.1113 36.7793C35.112 36.7786 35.1128 36.7786 35.1135 36.7779L39.498 40.4881C39.1878 40.77 44.1667 37.0832 44.1667 29.9998C44.1667 29.05 44.0689 28.1228 43.8911 27.2253Z" fill="#1976D2"/>
<rect x="80" width="60" height="60" rx="20" fill="#4460A0"/>
<g clip-path="url(#clip0_28_151)">
<path fill-rule="evenodd" clip-rule="evenodd" d="M117.862 14.2173V19.0651L114.985 19.0725C112.73 19.0725 112.295 20.144 112.295 21.71V25.1791H117.667L116.97 30.6038H112.295V44.72H106.691V30.6038H102V25.1791H106.691V21.178C106.691 16.5325 109.523 14 113.674 14C115.652 14 117.36 14.1499 117.862 14.2173Z" fill="white"/>
<path fill-rule="evenodd" clip-rule="evenodd" d="M117.862 14.2173V19.0651L114.985 19.0725C112.73 19.0725 112.295 20.144 112.295 21.71V25.1791H117.667L116.97 30.6038H112.295V44.72H106.691V30.6038H102V25.1791H106.691V21.178C106.691 16.5325 109.523 14 113.674 14C115.652 14 117.36 14.1499 117.862 14.2173Z" fill="white"/>
</g>
<defs>
<clipPath id="clip0_28_151">
<rect width="16" height="30.72" fill="white" transform="translate(102 14)"/>
</clipPath>
</defs>
</svg>
